<?xml version="1.0" standalone="no"?>
<!DOCTYPE svg PUBLIC "-//W3C//DTD SVG 20010904//EN"
 "http://www.w3.org/TR/2001/REC-SVG-20010904/DTD/svg10.dtd">
<svg version="1.0" xmlns="http://www.w3.org/2000/svg"
 width="900.000000pt" height="405.000000pt" viewBox="0 0 900.000000 405.000000"
 preserveAspectRatio="xMidYMid meet">

<g transform="translate(0.000000,405.000000) scale(0.100000,-0.100000)"
fill="#fff" stroke="none">

<path fill ="#FFCC33" d="M4580 3944 c-36 -8 -101 -32 -145 -53 -163 -81 -284 -217 -400 -449
-118 -239 -198 -507 -331 -1117 -201 -921 -303 -1246 -495 -1571 -72 -123
-187 -247 -303 -329 -95 -67 -356 -203 -424 -220 -35 -10 -104 -15 -184 -15
-276 0 -478 71 -627 220 -31 31 -48 43 -41 29 7 -13 54 -65 104 -115 107 -106
184 -149 341 -190 135 -36 330 -38 482 -5 183 38 360 111 502 205 345 230 544
654 831 1771 164 640 264 967 373 1222 72 168 122 258 208 372 101 135 218
211 362 235 l72 12 -55 7 c-84 10 -198 7 -270 -9z"/>
<path fill ="#FFCC33" d="M6565 3253 c-324 -21 -599 -138 -799 -339 -97 -98 -161 -193 -241
-359 -93 -192 -129 -287 -300 -802 -133 -402 -166 -491 -234 -628 -83 -168
-195 -345 -304 -480 -148 -184 -371 -365 -533 -434 -142 -60 -215 -75 -371
-76 -148 0 -152 -4 -29 -29 477 -99 1027 270 1346 903 74 148 131 299 275 736
159 482 191 567 277 743 82 170 164 288 277 401 179 181 414 308 634 345 73
12 74 23 2 19z"/>

<path fill ="#3399FF" d="M1082 3050 c-508 -137 -911 -875 -878 -1610 19 -439 184 -777 445
-914 175 -92 371 -86 563 16 426 228 728 836 728 1470 0 521 -200 913 -526
1029 -86 31 -236 35 -332 9z m230 -71 c99 -21 176 -66 268 -158 101 -102 154
-191 204 -341 54 -162 69 -268 69 -470 0 -309 -62 -574 -199 -841 -132 -258
-336 -470 -528 -547 -198 -80 -381 -60 -541 60 -161 122 -274 339 -320 617
-14 83 -16 143 -12 305 5 220 26 349 87 537 38 117 131 309 200 412 65 97 204
244 286 303 158 113 328 156 486 123z"/>
<path fill ="#3399FF" d="M1114 2636 c-74 -32 -127 -141 -126 -256 0 -106 55 -190 123 -190 32
0 37 11 14 30 -19 16 -45 103 -45 151 0 49 32 149 60 189 13 18 36 40 53 51
l31 18 -28 11 c-35 13 -44 12 -82 -4z"/>
<path fill ="#3399FF" d="M715 2101 c-132 -59 -171 -332 -60 -419 25 -20 85 -31 85 -16 0 3 -9
17 -19 31 -32 39 -45 125 -31 197 16 80 40 126 90 169 23 19 38 37 33 40 -26
15 -62 14 -98 -2z"/>
<path fill ="#3399FF" d="M1440 2036 c-20 -13 -49 -48 -65 -77 -23 -44 -30 -69 -33 -137 -7
-132 36 -212 114 -212 l33 0 -27 48 c-23 40 -27 58 -27 127 1 97 28 167 87
220 21 20 36 40 33 45 -12 19 -80 11 -115 -14z"/>
<path fill ="#3399FF" d="M1046 1969 c-17 -11 -17 -12 5 -23 34 -16 51 -58 43 -101 -8 -44 -39
-85 -65 -85 -23 0 -25 -15 -3 -24 52 -20 107 21 120 90 20 105 -33 181 -100
143z"/>
<path fill ="#3399FF" d="M914 1460 c-34 -13 -81 -75 -103 -135 -45 -120 -13 -268 64 -301 20
-8 45 -12 56 -9 17 6 17 8 4 21 -23 23 -33 46 -45 99 -25 110 41 275 123 309
20 8 -14 26 -48 25 -16 0 -39 -4 -51 -9z"/>
<path fill ="#FFCC33" d="M4156 2357 c-19 -62 -55 -182 -80 -267 -24 -85 -58 -191 -75 -235
-17 -44 -31 -84 -31 -90 0 -5 78 -38 173 -72 94 -35 325 -119 512 -187 240
-88 342 -121 347 -113 26 39 207 692 195 703 -4 4 -250 96 -697 259 -140 51
-267 98 -282 104 l-28 10 -34 -112z"/>
<path fill ="#3399FF" d="M2274 2003 c-12 -2 -32 -15 -45 -29 l-24 -26 0 -266 c0 -302 5 -329
73 -395 48 -47 107 -67 197 -67 60 0 82 5 133 31 34 16 72 43 86 60 14 16 27
29 29 29 2 0 4 -14 5 -32 1 -53 31 -83 87 -86 38 -3 52 1 71 19 l24 22 0 347
0 347 -25 23 c-20 19 -37 24 -75 24 -38 0 -55 -5 -75 -24 l-25 -23 0 -196 c0
-207 -7 -259 -37 -300 -48 -63 -131 -88 -191 -57 -61 32 -66 55 -70 318 -4
227 -5 237 -25 256 -23 21 -77 33 -113 25z" />
<path fill ="#3399FF" d="M3144 1996 c-53 -23 -55 -41 -52 -398 l3 -326 24 -26 c20 -22 34 -26
77 -26 36 0 59 6 75 19 23 19 24 24 30 228 5 184 8 214 27 256 25 56 63 77
139 77 59 0 89 19 102 65 17 62 -12 115 -75 135 -69 23 -152 -27 -191 -115
l-17 -40 -6 57 c-8 87 -64 125 -136 94z"/>
<path fill ="#3399FF" d="M5760 1986 c-108 -30 -189 -99 -237 -201 -26 -56 -28 -69 -28 -185 0
-116 2 -129 28 -185 63 -136 182 -205 352 -205 174 1 285 64 349 199 30 63 31
72 31 191 0 119 -1 128 -31 191 -50 105 -122 164 -239 195 -61 17 -165 16
-225 0z m183 -157 c78 -40 112 -118 105 -243 -7 -140 -68 -216 -173 -216 -65
0 -110 28 -145 90 -22 40 -25 57 -25 145 0 88 3 105 25 145 34 61 80 90 142
90 27 0 59 -5 71 -11z"/>
<path fill ="#3399FF" d="M6445 1989 c-43 -27 -44 -33 -45 -310 0 -287 4 -316 54 -382 43 -57
107 -82 206 -82 73 0 93 4 142 28 31 15 68 41 82 58 30 35 36 36 36 4 0 -88
99 -128 161 -65 l30 29 -3 340 c-3 334 -3 341 -25 362 -14 15 -38 23 -72 27
-46 4 -53 2 -81 -26 l-30 -30 0 -212 c0 -235 -4 -255 -63 -307 -65 -57 -162
-51 -204 13 -16 25 -19 58 -23 271 -5 232 -6 243 -27 264 -25 26 -107 36 -138
18z"/>
<path fill ="#3399FF" d="M7440 1984 c-143 -39 -215 -131 -196 -255 16 -108 72 -149 273 -201
145 -37 183 -55 183 -89 0 -51 -42 -79 -120 -79 -60 0 -111 24 -159 74 -60 62
-127 68 -165 14 -48 -68 19 -162 150 -209 83 -31 256 -33 332 -4 110 40 171
121 172 226 0 121 -79 183 -302 235 -71 16 -125 34 -137 46 -50 46 -3 98 90
98 71 0 93 -8 148 -54 53 -44 105 -49 139 -13 74 79 -2 178 -165 212 -86 18
-172 18 -243 -1z"/>
<path fill ="#3399FF" d="M8292 1984 c-29 -7 -67 -21 -84 -30 -57 -30 -124 -102 -154 -167 -27
-58 -29 -70 -29 -187 0 -114 2 -130 26 -180 35 -76 77 -121 146 -157 134 -71
320 -69 455 4 94 51 123 139 64 190 -39 34 -82 26 -147 -26 -130 -103 -317
-54 -336 89 l-6 39 263 3 262 3 20 25 c42 52 8 199 -66 288 -85 100 -264 147
-414 106z m185 -145 c15 -6 39 -20 51 -32 24 -22 62 -88 62 -107 0 -6 -62 -10
-180 -10 -118 0 -180 4 -180 10 0 19 38 85 62 107 44 41 124 55 185 32z"/>

</g>
</svg>
